<mxfile host="Electron" agent="Mozilla/5.0 (X11; Linux x86_64) AppleWebKit/537.36 (KHTML, like Gecko) draw.io/24.7.17 Chrome/128.0.6613.36 Electron/32.0.1 Safari/537.36" version="24.7.17">
  <diagram name="PÃ¡gina-1" id="VvAL8yBYar5RA5WONwtn">
    <mxGraphModel dx="1114" dy="663" grid="1" gridSize="10" guides="1" tooltips="1" connect="1" arrows="1" fold="1" page="1" pageScale="1" pageWidth="827" pageHeight="1169" math="0" shadow="0">
      <root>
        <mxCell id="0" />
        <mxCell id="1" parent="0" />
        <mxCell id="qG9zeNjEtGz_6E39t7Is-2" value="" style="rounded=0;whiteSpace=wrap;html=1;fillColor=#f5f5f5;gradientColor=#b3b3b3;strokeColor=#666666;" vertex="1" parent="1">
          <mxGeometry x="120" y="530" width="120" height="60" as="geometry" />
        </mxCell>
        <mxCell id="qG9zeNjEtGz_6E39t7Is-3" value="" style="rounded=0;whiteSpace=wrap;html=1;fillColor=#f5f5f5;gradientColor=#b3b3b3;strokeColor=#666666;" vertex="1" parent="1">
          <mxGeometry x="100" y="550" width="120" height="60" as="geometry" />
        </mxCell>
        <mxCell id="qG9zeNjEtGz_6E39t7Is-1" value="&lt;b&gt;LINEAR&lt;/b&gt;" style="rounded=0;whiteSpace=wrap;html=1;fillColor=#f5f5f5;strokeColor=#666666;gradientColor=#b3b3b3;" vertex="1" parent="1">
          <mxGeometry x="70" y="570" width="120" height="60" as="geometry" />
        </mxCell>
        <mxCell id="qG9zeNjEtGz_6E39t7Is-5" value="" style="rounded=0;whiteSpace=wrap;html=1;fillColor=#f5f5f5;gradientColor=#b3b3b3;strokeColor=#666666;" vertex="1" parent="1">
          <mxGeometry x="310" y="530" width="120" height="60" as="geometry" />
        </mxCell>
        <mxCell id="qG9zeNjEtGz_6E39t7Is-6" value="" style="rounded=0;whiteSpace=wrap;html=1;fillColor=#f5f5f5;gradientColor=#b3b3b3;strokeColor=#666666;" vertex="1" parent="1">
          <mxGeometry x="290" y="550" width="120" height="60" as="geometry" />
        </mxCell>
        <mxCell id="qG9zeNjEtGz_6E39t7Is-7" value="&lt;b&gt;LINEAR&lt;/b&gt;" style="rounded=0;whiteSpace=wrap;html=1;fillColor=#f5f5f5;gradientColor=#b3b3b3;strokeColor=#666666;" vertex="1" parent="1">
          <mxGeometry x="260" y="570" width="120" height="60" as="geometry" />
        </mxCell>
        <mxCell id="qG9zeNjEtGz_6E39t7Is-8" value="" style="rounded=0;whiteSpace=wrap;html=1;fillColor=#f5f5f5;gradientColor=#b3b3b3;strokeColor=#666666;" vertex="1" parent="1">
          <mxGeometry x="500" y="530" width="120" height="60" as="geometry" />
        </mxCell>
        <mxCell id="qG9zeNjEtGz_6E39t7Is-9" value="" style="rounded=0;whiteSpace=wrap;html=1;fillColor=#f5f5f5;gradientColor=#b3b3b3;strokeColor=#666666;" vertex="1" parent="1">
          <mxGeometry x="480" y="550" width="120" height="60" as="geometry" />
        </mxCell>
        <mxCell id="qG9zeNjEtGz_6E39t7Is-10" value="&lt;b&gt;LINEAR&lt;/b&gt;" style="rounded=0;whiteSpace=wrap;html=1;fillColor=#f5f5f5;gradientColor=#b3b3b3;strokeColor=#666666;" vertex="1" parent="1">
          <mxGeometry x="450" y="570" width="120" height="60" as="geometry" />
        </mxCell>
        <mxCell id="qG9zeNjEtGz_6E39t7Is-12" value="" style="rounded=0;whiteSpace=wrap;html=1;fillColor=#fff2cc;gradientColor=#ffd966;strokeColor=#d6b656;" vertex="1" parent="1">
          <mxGeometry x="275" y="320" width="220" height="70" as="geometry" />
        </mxCell>
        <mxCell id="qG9zeNjEtGz_6E39t7Is-11" value="" style="rounded=0;whiteSpace=wrap;html=1;fillColor=#fff2cc;strokeColor=#d6b656;gradientColor=#ffd966;" vertex="1" parent="1">
          <mxGeometry x="245" y="360" width="220" height="70" as="geometry" />
        </mxCell>
        <mxCell id="qG9zeNjEtGz_6E39t7Is-13" value="" style="strokeWidth=2;html=1;shape=mxgraph.flowchart.annotation_2;align=left;labelPosition=right;pointerEvents=1;direction=south;" vertex="1" parent="1">
          <mxGeometry x="165" y="450" width="400" height="60" as="geometry" />
        </mxCell>
        <mxCell id="qG9zeNjEtGz_6E39t7Is-17" style="edgeStyle=orthogonalEdgeStyle;rounded=0;orthogonalLoop=1;jettySize=auto;html=1;entryX=0.5;entryY=1;entryDx=0;entryDy=0;" edge="1" parent="1" source="qG9zeNjEtGz_6E39t7Is-14" target="qG9zeNjEtGz_6E39t7Is-16">
          <mxGeometry relative="1" as="geometry" />
        </mxCell>
        <mxCell id="qG9zeNjEtGz_6E39t7Is-14" value="&lt;b&gt;&lt;font color=&quot;#003300&quot;&gt;CONCATENATION&lt;/font&gt;&lt;/b&gt;" style="rounded=0;whiteSpace=wrap;html=1;fillColor=#d5e8d4;gradientColor=#97d077;strokeColor=#82b366;" vertex="1" parent="1">
          <mxGeometry x="290" y="210" width="160" height="50" as="geometry" />
        </mxCell>
        <mxCell id="qG9zeNjEtGz_6E39t7Is-16" value="&lt;b&gt;LINEAR&lt;/b&gt;" style="rounded=0;whiteSpace=wrap;html=1;fillColor=#f5f5f5;gradientColor=#b3b3b3;strokeColor=#666666;" vertex="1" parent="1">
          <mxGeometry x="320" y="90" width="100" height="50" as="geometry" />
        </mxCell>
        <mxCell id="qG9zeNjEtGz_6E39t7Is-18" value="" style="endArrow=classic;html=1;rounded=0;entryX=0.5;entryY=1;entryDx=0;entryDy=0;" edge="1" parent="1" target="qG9zeNjEtGz_6E39t7Is-14">
          <mxGeometry width="50" height="50" relative="1" as="geometry">
            <mxPoint x="370" y="323" as="sourcePoint" />
            <mxPoint x="414" y="270" as="targetPoint" />
          </mxGeometry>
        </mxCell>
        <mxCell id="qG9zeNjEtGz_6E39t7Is-19" value="&lt;b&gt;SCALED DOT-PRODUCT ATTENTION&lt;/b&gt;" style="text;html=1;align=center;verticalAlign=middle;whiteSpace=wrap;rounded=0;" vertex="1" parent="1">
          <mxGeometry x="290" y="385" width="130" height="20" as="geometry" />
        </mxCell>
        <mxCell id="qG9zeNjEtGz_6E39t7Is-20" value="" style="strokeWidth=2;html=1;shape=mxgraph.flowchart.annotation_2;align=left;labelPosition=right;pointerEvents=1;direction=west;" vertex="1" parent="1">
          <mxGeometry x="515" y="320" width="50" height="100" as="geometry" />
        </mxCell>
        <mxCell id="qG9zeNjEtGz_6E39t7Is-22" value="&lt;font color=&quot;#ff0000&quot;&gt;Number of&lt;/font&gt;&lt;div&gt;&lt;font color=&quot;#ff0000&quot;&gt;heads&lt;/font&gt;&lt;/div&gt;&lt;div&gt;&lt;br&gt;&lt;/div&gt;" style="text;html=1;align=center;verticalAlign=middle;whiteSpace=wrap;rounded=0;" vertex="1" parent="1">
          <mxGeometry x="580" y="350" width="70" height="40" as="geometry" />
        </mxCell>
        <mxCell id="qG9zeNjEtGz_6E39t7Is-23" value="&lt;b&gt;&lt;font style=&quot;font-size: 15px;&quot; color=&quot;#0000ff&quot;&gt;Queries&lt;/font&gt;&lt;/b&gt;" style="text;html=1;align=center;verticalAlign=middle;whiteSpace=wrap;rounded=0;" vertex="1" parent="1">
          <mxGeometry x="100" y="660" width="60" height="30" as="geometry" />
        </mxCell>
        <mxCell id="qG9zeNjEtGz_6E39t7Is-24" value="&lt;font color=&quot;#330066&quot; style=&quot;font-size: 15px;&quot;&gt;&lt;b&gt;Values&lt;/b&gt;&lt;/font&gt;" style="text;html=1;align=center;verticalAlign=middle;whiteSpace=wrap;rounded=0;" vertex="1" parent="1">
          <mxGeometry x="480" y="660" width="60" height="30" as="geometry" />
        </mxCell>
        <mxCell id="qG9zeNjEtGz_6E39t7Is-25" value="&lt;b&gt;&lt;font color=&quot;#00ffff&quot; style=&quot;font-size: 15px;&quot;&gt;Keys&lt;/font&gt;&lt;/b&gt;" style="text;html=1;align=center;verticalAlign=middle;whiteSpace=wrap;rounded=0;" vertex="1" parent="1">
          <mxGeometry x="290" y="660" width="60" height="30" as="geometry" />
        </mxCell>
        <mxCell id="qG9zeNjEtGz_6E39t7Is-28" value="&lt;font color=&quot;#cc6600&quot;&gt;Learnable&lt;/font&gt;&lt;div&gt;&lt;font color=&quot;#cc6600&quot;&gt;Parameters&lt;/font&gt;&lt;/div&gt;" style="text;html=1;align=center;verticalAlign=middle;whiteSpace=wrap;rounded=0;" vertex="1" parent="1">
          <mxGeometry x="60" y="230" width="80" height="60" as="geometry" />
        </mxCell>
        <mxCell id="qG9zeNjEtGz_6E39t7Is-29" value="" style="endArrow=classic;html=1;rounded=0;" edge="1" parent="1">
          <mxGeometry width="50" height="50" relative="1" as="geometry">
            <mxPoint x="115" y="230" as="sourcePoint" />
            <mxPoint x="300" y="120" as="targetPoint" />
          </mxGeometry>
        </mxCell>
        <mxCell id="qG9zeNjEtGz_6E39t7Is-30" value="" style="endArrow=classic;html=1;rounded=0;" edge="1" parent="1">
          <mxGeometry width="50" height="50" relative="1" as="geometry">
            <mxPoint x="100" y="300" as="sourcePoint" />
            <mxPoint x="100" y="510" as="targetPoint" />
          </mxGeometry>
        </mxCell>
      </root>
    </mxGraphModel>
  </diagram>
</mxfile>
